<svg width="2737" height="1783" xmlns="http://www.w3.org/2000/svg" xmlns:xlink="http://www.w3.org/1999/xlink" xml:space="preserve" overflow="hidden"><defs><clipPath id="clip0"><rect x="760" y="265" width="2737" height="1783"/></clipPath></defs><g clip-path="url(#clip0)" transform="translate(-760 -265)"><path d="M1317 454 1317 894" stroke="#FF0000" stroke-width="13.75" stroke-linecap="round" stroke-linejoin="miter" stroke-miterlimit="8" stroke-opacity="1" fill="none" fill-rule="evenodd"/><path d="M1317 894 1512.34 1045.72" stroke="#FF0000" stroke-width="13.75" stroke-linecap="round" stroke-linejoin="miter" stroke-miterlimit="8" stroke-opacity="1" fill="none" fill-rule="evenodd"/><path d="M1512 1046 1886.08 1046" stroke="#FF0000" stroke-width="13.75" stroke-linecap="round" stroke-linejoin="miter" stroke-miterlimit="8" stroke-opacity="1" fill="none" fill-rule="evenodd"/><path d="M0 0 0.000360892 269.516" stroke="#FF0000" stroke-width="13.75" stroke-linecap="round" stroke-linejoin="miter" stroke-miterlimit="8" stroke-opacity="1" fill="none" fill-rule="evenodd" transform="matrix(1 0 0 -1 1886 1045.52)"/><path d="M0 0 242.297 322.209" stroke="#FF0000" stroke-width="13.75" stroke-linecap="round" stroke-linejoin="miter" stroke-miterlimit="8" stroke-opacity="1" fill="none" fill-rule="evenodd" transform="matrix(1 0 0 -1 1886 776.209)"/><path d="M2183 685 1743 685.001" stroke="#548235" stroke-width="13.75" stroke-linecap="round" stroke-linejoin="miter" stroke-miterlimit="8" stroke-opacity="1" fill="none" fill-rule="evenodd"/><path d="M1742.72 685 1591 880.345" stroke="#548235" stroke-width="13.75" stroke-linecap="round" stroke-linejoin="miter" stroke-miterlimit="8" stroke-opacity="1" fill="none" fill-rule="evenodd"/><path d="M1591 880 1591 1254.08" stroke="#548235" stroke-width="13.75" stroke-linecap="round" stroke-linejoin="miter" stroke-miterlimit="8" stroke-opacity="1" fill="none" fill-rule="evenodd"/><path d="M0 0 0.000360892 269.516" stroke="#548235" stroke-width="13.75" stroke-linecap="round" stroke-linejoin="miter" stroke-miterlimit="8" stroke-opacity="1" fill="none" fill-rule="evenodd" transform="matrix(6.12323e-17 1 1 -6.12323e-17 1591 1254)"/><path d="M0 0 542.85 0.000360892" stroke="#FF9300" stroke-width="13.75" stroke-linecap="round" stroke-linejoin="miter" stroke-miterlimit="8" stroke-opacity="1" fill="none" fill-rule="evenodd" transform="matrix(-1 0 0 1 2298.85 956)"/><path d="M1755.34 956.724 1560 805" stroke="#FF9300" stroke-width="13.75" stroke-linecap="round" stroke-linejoin="miter" stroke-miterlimit="8" stroke-opacity="1" fill="none" fill-rule="evenodd"/><path d="M1560.08 805 1186 805" stroke="#FF9300" stroke-width="13.75" stroke-linecap="round" stroke-linejoin="miter" stroke-miterlimit="8" stroke-opacity="1" fill="none" fill-rule="evenodd"/><path d="M0 0 0.000360892 269.516" stroke="#FF9300" stroke-width="13.75" stroke-linecap="round" stroke-linejoin="miter" stroke-miterlimit="8" stroke-opacity="1" fill="none" fill-rule="evenodd" transform="matrix(-1 1.22465e-16 1.22465e-16 1 1186 805)"/><path d="M0 0 406.271 0.000360892" stroke="#0432FF" stroke-width="13.75" stroke-linecap="round" stroke-linejoin="miter" stroke-miterlimit="8" stroke-opacity="1" fill="none" fill-rule="evenodd" transform="matrix(-6.12323e-17 -1 -1 6.12323e-17 1456 1310.27)"/><path d="M1456 904.197 1607.72 758" stroke="#0432FF" stroke-width="13.75" stroke-linecap="round" stroke-linejoin="miter" stroke-miterlimit="8" stroke-opacity="1" fill="none" fill-rule="evenodd"/><path d="M1607 757.965 1607 478" stroke="#0432FF" stroke-width="13.75" stroke-linecap="round" stroke-linejoin="miter" stroke-miterlimit="8" stroke-opacity="1" fill="none" fill-rule="evenodd"/><path d="M1686 1209 1686 769" stroke="#941651" stroke-width="13.75" stroke-linecap="round" stroke-linejoin="miter" stroke-miterlimit="8" stroke-opacity="1" fill="none" fill-rule="evenodd"/><path d="M1686.34 768.724 1491 617" stroke="#941651" stroke-width="13.75" stroke-linecap="round" stroke-linejoin="miter" stroke-miterlimit="8" stroke-opacity="1" fill="none" fill-rule="evenodd"/><path d="M1491.08 617 1117 617" stroke="#941651" stroke-width="13.75" stroke-linecap="round" stroke-linejoin="miter" stroke-miterlimit="8" stroke-opacity="1" fill="none" fill-rule="evenodd"/><path d="M1688 1209 2007.2 1209" stroke="#941651" stroke-width="13.75" stroke-linecap="round" stroke-linejoin="miter" stroke-miterlimit="8" stroke-opacity="1" fill="none" fill-rule="evenodd"/><path d="M0 0 0.000360892 935.378" stroke="#941651" stroke-width="13.75" stroke-linecap="round" stroke-linejoin="miter" stroke-miterlimit="8" stroke-opacity="1" fill="none" fill-rule="evenodd" transform="matrix(1 0 0 -1 2013 1209.38)"/><text fill="#385723" fill-opacity="1" font-family="Arial,Arial_MSFontService,sans-serif" font-style="italic" font-variant="normal" font-weight="700" font-stretch="normal" font-size="440" text-anchor="start" direction="ltr" writing-mode="lr-tb" unicode-bidi="normal" text-decoration="none" transform="matrix(1 0 0 1 1360.31 1681)">METRO<tspan fill="#385723" fill-opacity="1" font-family="Calibri,Calibri_MSFontService,sans-serif" font-style="normal" font-variant="normal" font-weight="700" font-stretch="normal" font-size="202" text-anchor="start" direction="ltr" writing-mode="lr-tb" unicode-bidi="normal" text-decoration="none" x="-474.982" y="169">Mouse </tspan><tspan fill="#385723" fill-opacity="1" font-family="Calibri,Calibri_MSFontService,sans-serif" font-style="normal" font-variant="normal" font-weight="700" font-stretch="normal" font-size="202" text-anchor="start" direction="ltr" writing-mode="lr-tb" unicode-bidi="normal" text-decoration="none" x="145.487" y="169">nEoanTigen</tspan><tspan fill="#385723" fill-opacity="1" font-family="Calibri,Calibri_MSFontService,sans-serif" font-style="normal" font-variant="normal" font-weight="700" font-stretch="normal" font-size="202" text-anchor="start" direction="ltr" writing-mode="lr-tb" unicode-bidi="normal" text-decoration="none" x="1168.72" y="169">pRedictOr</tspan></text><rect x="2627" y="806" width="714" height="163" fill="#A9D18E" fill-opacity="1"/><rect x="2578" y="595" width="763" height="163" fill="#385723" fill-opacity="1"/><path d="M2621 805.07C2620.72 1090.1 2411.94 1321 2154.5 1321L2154.5 1087.75C2283.23 1087.75 2387.62 961.108 2387.75 804.785Z" fill="#385723" fill-rule="evenodd" fill-opacity="1"/><path d="M471.57 0C731.473 0.311568 942 209.08 942 466.5L708.75 466.5C708.75 337.789 602.479 233.405 471.285 233.25Z" fill="#385723" fill-rule="evenodd" fill-opacity="1" transform="matrix(-6.12323e-17 -1 -1 6.12323e-17 2620 1230)"/></g></svg>